<svg width="24" height="24" viewBox="0 0 24 24" fill="none" xmlns="http://www.w3.org/2000/svg">
<path d="M22.02 11.1639C21.887 10.8978 21.6914 10.6679 21.45 10.4939L20.12 9.49395C20.0509 9.44624 20.0012 9.37526 19.98 9.29395C19.9502 9.21329 19.9502 9.1246 19.98 9.04395L20.53 7.41395C20.6183 7.12243 20.6388 6.8146 20.59 6.51395C20.5439 6.20775 20.4199 5.91852 20.23 5.67395C20.0471 5.42932 19.8066 5.23355 19.53 5.10395C19.2654 4.97689 18.9731 4.91843 18.68 4.93395H17.18C17.0913 4.93287 17.0053 4.90305 16.935 4.84895C16.8647 4.79486 16.8138 4.71942 16.79 4.63395L16.36 3.13395C16.2771 2.82963 16.1189 2.55108 15.9 2.32395C15.6817 2.10215 15.4146 1.93437 15.12 1.83395C14.8222 1.74257 14.5072 1.72203 14.2 1.77395C13.8954 1.83344 13.6103 1.96743 13.37 2.16395L12.23 3.06395C12.1668 3.1209 12.0851 3.15289 12 3.15395C11.9232 3.16128 11.8461 3.14376 11.78 3.10395L10.65 2.20395C10.4181 2.01438 10.1435 1.88397 9.85002 1.82395C9.56087 1.75395 9.25918 1.75395 8.97002 1.82395C8.68005 1.90451 8.41294 2.05176 8.19002 2.25395C7.96195 2.4749 7.78749 2.74514 7.68002 3.04395L7.25002 4.55395C7.22819 4.64297 7.17492 4.72111 7.10002 4.77395C7.02097 4.82812 6.92544 4.85289 6.83002 4.84395H5.41002C5.10323 4.83192 4.79803 4.89365 4.52002 5.02395C4.23794 5.14918 3.99327 5.34561 3.81002 5.59395C3.62596 5.83818 3.50257 6.12267 3.45002 6.42395C3.40002 6.71695 3.42002 7.01895 3.51002 7.30395L4.00002 8.99295C4.0258 9.07325 4.02619 9.15954 4.00114 9.24007C3.97609 9.3206 3.92681 9.39145 3.86002 9.44295L2.53002 10.4429C2.28802 10.6229 2.09002 10.8549 1.95002 11.1229C1.81865 11.3888 1.75031 11.6814 1.75031 11.9779C1.75031 12.2745 1.81865 12.5671 1.95002 12.8329C2.08959 13.1005 2.28787 13.3329 2.53002 13.5129L3.86002 14.5129C3.92681 14.5644 3.97609 14.6353 4.00114 14.7158C4.02619 14.7964 4.0258 14.8826 4.00002 14.9629L3.45002 16.5929C3.35686 16.8868 3.33291 17.1983 3.38002 17.5029C3.43002 17.8009 3.55402 18.0829 3.74002 18.3229C3.92302 18.5729 4.16802 18.7729 4.45002 18.9029C4.71502 19.0289 5.00702 19.0869 5.30002 19.0729H6.79002C6.88021 19.0691 6.96884 19.0974 7.04002 19.1529C7.11191 19.2024 7.16203 19.2776 7.18002 19.3629L7.61002 20.8729C7.6989 21.1718 7.85642 21.4458 8.07002 21.6729C8.39614 22.0126 8.8373 22.2183 9.30711 22.2497C9.77692 22.2812 10.2416 22.1361 10.61 21.8429L11.76 20.9329C11.8294 20.8769 11.9159 20.8464 12.005 20.8464C12.0942 20.8464 12.1807 20.8769 12.25 20.9329L13.38 21.8329C13.62 22.0349 13.91 22.1699 14.22 22.2229C14.333 22.2329 14.447 22.2329 14.56 22.2229C14.7569 22.2232 14.9525 22.1928 15.14 22.1329C15.4369 22.0395 15.7057 21.8736 15.9222 21.6501C16.1387 21.4266 16.2961 21.1526 16.38 20.8529L16.82 19.3329C16.838 19.2476 16.8881 19.1724 16.96 19.1229C17.0373 19.0644 17.1333 19.036 17.23 19.0429H18.66C18.9658 19.0551 19.2703 18.997 19.55 18.8729C19.8258 18.7413 20.0659 18.5455 20.2504 18.3019C20.4348 18.0583 20.5581 17.774 20.61 17.4729C20.6618 17.1651 20.6378 16.8494 20.54 16.5529L20 14.9329C19.9702 14.8523 19.9702 14.7636 20 14.6829C20.0212 14.6016 20.0709 14.5307 20.14 14.4829L21.47 13.4829C21.7118 13.3053 21.9073 13.0721 22.04 12.8029C22.1797 12.5379 22.2519 12.2425 22.25 11.9429C22.2311 11.6693 22.1526 11.4041 22.02 11.1639ZM16.58 10.4029L12.16 14.8229C11.9887 14.9904 11.7889 15.1258 11.57 15.2229C11.348 15.3129 11.11 15.3609 10.87 15.3629C10.6254 15.3643 10.3832 15.3131 10.16 15.2129C9.93588 15.12 9.73206 14.9841 9.56002 14.8129L7.38002 12.6229C7.2162 12.4316 7.13059 12.1856 7.14031 11.9339C7.15003 11.6822 7.25437 11.4435 7.43246 11.2654C7.61055 11.0873 7.84929 10.983 8.10097 10.9732C8.35265 10.9635 8.59872 11.0491 8.79002 11.2129L10.87 13.2929L15.17 8.98295C15.3574 8.7967 15.6108 8.69215 15.875 8.69215C16.1392 8.69215 16.3927 8.7967 16.58 8.98295C16.6802 9.07633 16.7601 9.18933 16.8147 9.31492C16.8693 9.44051 16.8975 9.576 16.8975 9.71295C16.8975 9.8499 16.8693 9.98538 16.8147 10.111C16.7601 10.2366 16.6802 10.3496 16.58 10.4429V10.4029Z" fill="#00C2FF"/>
</svg>
