<svg width="30" height="30" viewBox="0 0 30 30" fill="none" xmlns="http://www.w3.org/2000/svg">
<path d="M24.2188 18.8787C25.0299 16.9516 25.2166 14.8188 24.7527 12.78C24.2887 10.7413 23.1975 8.89922 21.6325 7.5128C20.0674 6.12637 18.1071 5.26531 16.0273 5.05068C13.9475 4.83605 11.8528 5.27864 10.0375 6.31623L8.79755 4.14498C10.6946 3.06075 12.8428 2.49294 15.0278 2.49821C17.2128 2.50347 19.3583 3.08162 21.25 4.17498C26.8625 7.41498 29.0125 14.3525 26.3963 20.1375L28.0738 21.105L22.8675 23.8725L22.6613 17.98L24.2188 18.8787ZM5.7813 11.1212C4.97023 13.0484 4.78353 15.1812 5.24745 17.2199C5.71136 19.2587 6.80257 21.1007 8.36764 22.4872C9.93272 23.8736 11.893 24.7347 13.9728 24.9493C16.0526 25.1639 18.1473 24.7213 19.9625 23.6837L21.2025 25.855C19.3055 26.9392 17.1573 27.507 14.9723 27.5018C12.7873 27.4965 10.6418 26.9183 8.75005 25.825C3.13755 22.585 0.987549 15.6475 3.6038 9.86248L1.92505 8.89623L7.1313 6.12873L7.33755 12.0212L5.78005 11.1225L5.7813 11.1212ZM10.625 17.5H17.5C17.6658 17.5 17.8248 17.4341 17.942 17.3169C18.0592 17.1997 18.125 17.0407 18.125 16.875C18.125 16.7092 18.0592 16.5503 17.942 16.433C17.8248 16.3158 17.6658 16.25 17.5 16.25H12.5C11.6712 16.25 10.8764 15.9207 10.2903 15.3347C9.70429 14.7486 9.37505 13.9538 9.37505 13.125C9.37505 12.2962 9.70429 11.5013 10.2903 10.9153C10.8764 10.3292 11.6712 9.99998 12.5 9.99998H13.75V8.74998H16.25V9.99998H19.375V12.5H12.5C12.3343 12.5 12.1753 12.5658 12.0581 12.683C11.9409 12.8003 11.875 12.9592 11.875 13.125C11.875 13.2907 11.9409 13.4497 12.0581 13.5669C12.1753 13.6841 12.3343 13.75 12.5 13.75H17.5C18.3288 13.75 19.1237 14.0792 19.7098 14.6653C20.2958 15.2513 20.625 16.0462 20.625 16.875C20.625 17.7038 20.2958 18.4986 19.7098 19.0847C19.1237 19.6707 18.3288 20 17.5 20H16.25V21.25H13.75V20H10.625V17.5Z" fill="#868e96"/>
</svg>
